<svg width="24" height="25" viewBox="0 0 24 25" fill="none" xmlns="http://www.w3.org/2000/svg">
<rect y="0.621094" width="24" height="24" rx="12" fill="#35ACDF"/>
<path fill-rule="evenodd" clip-rule="evenodd" d="M5.26935 13.3709C5.19455 13.3441 5.12857 13.2905 5.08043 13.2175C5.0323 13.1445 5.00437 13.0556 5.00047 12.9631C4.99658 12.8705 5.0169 12.7787 5.05867 12.7004C5.10044 12.6221 5.1616 12.561 5.23378 12.5255L16.4773 7.03345C16.5401 7.00301 16.6086 6.9931 16.6756 7.00473C16.7427 7.01637 16.806 7.04913 16.8588 7.0996C16.9115 7.15008 16.952 7.21642 16.9758 7.29172C16.9996 7.36702 17.006 7.44853 16.9943 7.52774L15.323 18.6299C15.3121 18.7027 15.2861 18.7712 15.2475 18.8292C15.2089 18.8872 15.1588 18.9331 15.1016 18.9626C15.0445 18.9922 14.9821 19.0045 14.92 18.9985C14.8578 18.9926 14.7979 18.9685 14.7455 18.9285L10.3028 15.5402C10.2564 15.5049 10.2171 15.4579 10.1876 15.4026C10.1581 15.3474 10.1391 15.2851 10.132 15.2203C10.1249 15.1554 10.1298 15.0894 10.1465 15.0271C10.1631 14.9647 10.191 14.9074 10.2283 14.8592L14.0877 9.86455L8.17778 14.2463C8.13213 14.2803 8.08089 14.3022 8.0275 14.3108C7.9741 14.3193 7.91979 14.3142 7.8682 14.2957L5.26935 13.3709Z" fill="white"/>
</svg>
