<svg width="24" height="24" viewBox="0 0 24 24" fill="none" xmlns="http://www.w3.org/2000/svg">
<path d="M12 24C18.6274 24 24 18.6274 24 12C24 5.37258 18.6274 0 12 0C5.37258 0 0 5.37258 0 12C0 18.6274 5.37258 24 12 24Z" fill="#1BA5D4"/>
<path fill-rule="evenodd" clip-rule="evenodd" d="M9.80605 15.5533C8.34003 15.5047 7.4274 14.4465 7.18469 13.5921C7.59245 13.6698 7.99051 13.6504 8.39828 13.5533C8.40799 13.5533 8.4177 13.5533 8.43711 13.5339C7.641 13.3494 7.02935 12.9222 6.60216 12.2426C6.32061 11.7863 6.18469 11.2911 6.18469 10.7377C6.58275 10.9513 7.00022 11.0678 7.43712 11.0776C6.83517 10.6504 6.43711 10.0873 6.27207 9.36882C6.10702 8.65037 6.21381 7.97076 6.57304 7.32027C8.09731 9.11639 10.0391 10.1067 12.3886 10.2717C12.3692 10.1649 12.3594 10.0581 12.34 9.96105C12.2624 9.30085 12.3983 8.6795 12.7478 8.11639C13.1944 7.40765 13.8352 6.97076 14.6604 6.84454C15.6119 6.6892 16.4371 6.96105 17.1264 7.63095C17.175 7.6795 17.2138 7.6892 17.2721 7.67949C17.8546 7.55328 18.3983 7.3494 18.9128 7.04843C18.9226 7.04843 18.942 7.03872 18.9517 7.02901C18.9517 7.02901 18.9517 7.02901 18.9711 7.02901C18.7478 7.6892 18.34 8.19406 17.7672 8.56299C18.3109 8.50474 18.8352 8.35911 19.34 8.13581C19.34 8.13581 19.34 8.13581 19.3497 8.14552C19.2429 8.29115 19.1361 8.42707 19.0294 8.5727C18.7284 8.94163 18.3886 9.26202 18.0002 9.54357C17.9711 9.56299 17.9517 9.59212 17.9517 9.63095C17.9711 10.0484 17.9517 10.4659 17.9031 10.8834C17.7963 11.7572 17.5536 12.5921 17.175 13.3979C16.7866 14.2232 16.2818 14.9708 15.6507 15.6212C14.573 16.728 13.2818 17.4465 11.7769 17.7863C11.2624 17.9028 10.7381 17.961 10.2041 17.9708C8.57304 18.0193 7.07789 17.6115 5.68954 16.7572C5.67013 16.7475 5.65071 16.7377 5.62158 16.7183C6.60216 16.8251 7.54391 16.6989 8.44683 16.33C8.92255 16.1358 9.36915 15.8737 9.78663 15.5436L9.80605 15.5533Z" fill="white"/>
</svg>
