<svg width="24" height="25" viewBox="0 0 24 25" fill="none" xmlns="http://www.w3.org/2000/svg">
<path d="M12 24.6211C18.6274 24.6211 24 19.2485 24 12.6211C24 5.99368 18.6274 0.621094 12 0.621094C5.37258 0.621094 0 5.99368 0 12.6211C0 19.2485 5.37258 24.6211 12 24.6211Z" fill="#40C351"/>
<path fill-rule="evenodd" clip-rule="evenodd" d="M5.66009 18.9899C5.73776 18.6986 5.79601 18.4559 5.86397 18.2035C6.08727 17.4074 6.31058 16.6112 6.51447 15.8054C6.54359 15.6889 6.53388 15.5239 6.47562 15.4171C4.4465 11.553 6.54358 6.87338 10.796 5.87338C14.6601 4.97046 18.1358 7.57241 18.7669 11.0578C19.4271 14.6986 17.0484 18.1549 13.4368 18.786C11.9999 19.0384 10.631 18.8248 9.32029 18.1841C9.20379 18.1258 9.03874 18.1064 8.91253 18.1355C7.16495 18.5724 6.00961 18.9025 5.65039 18.9705L5.66009 18.9899ZM7.19408 17.4753C7.85427 17.3006 8.45621 17.1549 9.05815 16.9802C9.2232 16.9316 9.35911 16.9608 9.50475 17.0481C10.6407 17.6986 11.8543 17.9413 13.1552 17.7375C16.1455 17.2617 18.1941 14.4559 17.7378 11.4753C17.262 8.38794 14.3688 6.31027 11.3106 6.87338C7.61154 7.55299 5.64068 11.6792 7.48534 14.951C7.68922 15.3103 7.74747 15.6112 7.61154 15.9996C7.4465 16.4656 7.34941 16.951 7.20378 17.4753H7.19408Z" fill="white"/>
<path fill-rule="evenodd" clip-rule="evenodd" d="M14.0097 15.456C12.7282 15.4075 10.6699 14.3978 9.27185 11.9609C8.77671 11.0968 8.84466 10.1065 9.57282 9.42689C9.81554 9.19388 10.1262 9.25213 10.4175 9.30068C10.4854 9.31039 10.5631 9.41718 10.6019 9.50456C10.7864 9.93175 10.9709 10.3589 11.1359 10.7958C11.2233 11.0288 11.068 11.2424 10.7282 11.6211C10.6214 11.7376 10.6019 11.8541 10.6796 11.9997C11.2233 12.9123 11.9709 13.5725 12.9709 13.9609C13.1165 14.0191 13.2233 13.9803 13.3204 13.8638C13.8447 13.223 13.9029 13.0385 14.1748 13.1648C15.5049 13.8055 15.6117 13.8249 15.6117 13.9803C15.6602 15.1065 14.6311 15.5046 14 15.456H14.0097Z" fill="white"/>
</svg>
